<svg width="376.5" height="376.5" xmlns="http://www.w3.org/2000/svg" xml:space="preserve" version="1.1">

 <g>
  <title>Layer 1</title>
  <g id="svg_2">
   <path id="svg_3" fill="#00C896" d="m376.5,188.3c0,104 -84.3,188.3 -188.3,188.3s-188.2,-84.4 -188.2,-188.3s84.3,-188.3 188.3,-188.3s188.2,84.3 188.2,188.3" class="st0"/>
   <path id="svg_4" fill="#FFFFFF" d="m282.3,114.1l0,-23.3l-24.5,0c-19.6,-14 -43.6,-22.2 -69.5,-22.2s-49.9,8.2 -69.5,22.2l-24.5,0l0,23.3c-16.1,20.4 -25.7,46.1 -25.7,74.1c0,40.8 20.5,76.9 51.7,98.5c0,0 0,0 0,0c2,1.4 4,2.6 6.1,3.7l61.9,32.8l61.9,-32.8c2.3,-1.2 4.4,-2.5 6.5,-4c0,0 0,0 0,0c31,-21.6 51.3,-57.6 51.3,-98.3c0,-27.8 -9.6,-53.6 -25.7,-74" class="st1"/>
   <path id="svg_5" fill="#003C3C" d="m277.3,237.5l0,-141.4l-178,0l0,141.4c0,20.5 11.3,39.4 29.5,49l59.5,31.5l59.5,-31.5c18.1,-9.7 29.5,-28.5 29.5,-49m-57,45.8c0,-3.1 2.5,-5.7 5.7,-5.7c3.1,0 5.7,2.5 5.7,5.7c0,3.1 -2.5,5.7 -5.7,5.7c-3.1,0 -5.7,-2.5 -5.7,-5.7m-38,18.6c0,-3.1 2.5,-5.7 5.7,-5.7c3.1,0 5.7,2.5 5.7,5.7s-2.5,5.7 -5.7,5.7c-3.2,0 -5.7,-2.6 -5.7,-5.7m-17.9,-25.7l23.9,-12.9l23.8,12.9l-23.9,12.6l-23.8,-12.6zm-20,7.1c0,-3.1 2.5,-5.7 5.7,-5.7c3.1,0 5.7,2.5 5.7,5.7c0,3.1 -2.6,5.7 -5.7,5.7c-3.1,-0.1 -5.7,-2.6 -5.7,-5.7m-19.4,-54.2l41.2,22.3l-24.1,13l-1.3,-0.7c-4.8,-2.5 -8.8,-6.3 -11.5,-10.9c-2.8,-4.6 -4.3,-9.9 -4.3,-15.3l0,-8.4l0,0zm-18.6,-4.1c0,-3.1 2.5,-5.7 5.7,-5.7c3.1,0 5.7,2.5 5.7,5.7c0,3.1 -2.6,5.7 -5.7,5.7c-3.2,0 -5.7,-2.6 -5.7,-5.7m0,-38.3c0,-3.1 2.5,-5.7 5.7,-5.7c3.1,0 5.7,2.5 5.7,5.7c0,3.1 -2.6,5.7 -5.7,5.7c-3.2,0 -5.7,-2.6 -5.7,-5.7m0,-38.3c0,-3.1 2.5,-5.7 5.7,-5.7c3.1,0 5.7,2.5 5.7,5.7c0,3.1 -2.6,5.7 -5.7,5.7c-3.2,-0.1 -5.7,-2.6 -5.7,-5.7m11.5,-39.3c0,3.1 -2.5,5.7 -5.7,5.7c-3.1,0 -5.7,-2.5 -5.7,-5.7c0,-3.1 2.6,-5.7 5.7,-5.7c3.2,0 5.7,2.6 5.7,5.7m6.2,150.1c0,3.1 -2.5,5.7 -5.7,5.7s-5.7,-2.5 -5.7,-5.7c0,-3.1 2.5,-5.7 5.7,-5.7c3.2,0 5.7,2.6 5.7,5.7m44.4,-150.1c0,3.1 -2.5,5.7 -5.7,5.7c-3.1,0 -5.7,-2.5 -5.7,-5.7c0,-3.1 2.5,-5.7 5.7,-5.7c3.1,0 5.7,2.6 5.7,5.7m50.5,0c0,3.1 -2.5,5.7 -5.7,5.7c-3.1,0 -5.7,-2.5 -5.7,-5.7c0,-3.1 2.5,-5.7 5.7,-5.7c3.2,0 5.7,2.6 5.7,5.7m32.6,96.2l-63.3,34.1l-63.3,-34.2l0,-83.4l126.6,0l0,83.5zm0,32.2c0,5.4 -1.5,10.7 -4.2,15.3c-2.8,4.6 -6.8,8.4 -11.5,10.9l-1.3,0.7l-24.1,-13l41.1,-22.2l0,8.3l0,0zm6.5,16.2c3.1,0 5.7,2.5 5.7,5.7c0,3.1 -2.5,5.7 -5.7,5.7c-3.1,0 -5.7,-2.5 -5.7,-5.7c0.1,-3.2 2.6,-5.7 5.7,-5.7m11.5,-144.6c0,3.1 -2.5,5.7 -5.7,5.7c-3.1,0 -5.7,-2.5 -5.7,-5.7c0,-3.1 2.5,-5.7 5.7,-5.7s5.7,2.6 5.7,5.7m0,39.4c0,3.1 -2.5,5.7 -5.7,5.7c-3.1,0 -5.7,-2.5 -5.7,-5.7c0,-3.1 2.5,-5.7 5.7,-5.7s5.7,2.6 5.7,5.7m0,38.3c0,3.1 -2.5,5.7 -5.7,5.7c-3.1,0 -5.7,-2.5 -5.7,-5.7c0,-3.1 2.5,-5.7 5.7,-5.7s5.7,2.6 5.7,5.7m0,38.3c0,3.1 -2.5,5.7 -5.7,5.7c-3.1,0 -5.7,-2.5 -5.7,-5.7c0,-3.1 2.5,-5.7 5.7,-5.7s5.7,2.6 5.7,5.7m-81.3,-6.5l2.4,1.7l15.8,0l2.9,-1.5l0,-19.9l-1.6,-1.6l0,20.2l-3.9,-1.9c-2.4,-1.2 -4.7,-1.8 -6.8,-1.8c-2.1,0 -4.4,0.6 -6.8,1.8l-2,1l-2,-1c-2.4,-1.2 -4.7,-1.8 -6.8,-1.8c-2.1,0 -4.4,0.6 -6.8,1.8l-3.9,1.9l0,-20.4l-1.5,1.8l0,20l2.9,1.5l15.8,0l2.3,-1.8zm13.7,-35.3l12.1,9.2c0.8,-6.5 1.6,-12.9 2.3,-18.9l-17.3,-13.1c0.9,7.3 1.8,15 2.8,22.7l0.1,0.1zm17.2,-22.5c-1.5,12.7 -3,25.4 -4.6,38c8,3.9 17.1,3.9 25.1,0c-1.6,-12.7 -3.2,-25.3 -4.6,-38c-5.3,-0.8 -10.6,-0.8 -15.9,0m6.7,11.3c0,-0.9 0.3,-1.8 0.8,-2.6c0.2,-0.3 0.3,-0.4 0.5,-0.7c0.2,0.3 0.3,0.4 0.5,0.7c0.5,0.8 0.8,1.6 0.8,2.6l0,6.2c-0.8,0 -1.6,0 -2.5,0l-0.1,-6.2l0,0zm9.2,-12.6c0.8,-1.1 1.5,-2.2 2.4,-3.3c-6.8,-1.8 -13.8,-1.8 -20.5,0c0.8,1.1 1.6,2.2 2.4,3.3c5.1,-0.9 10.4,-0.9 15.7,0m-7.3,-6c3.2,0 6.5,0.5 9.6,1.5l0,-6.2c-1.2,-0.5 -2.3,-0.8 -3.5,-1.1c-0.4,0.8 -0.8,1.6 -1.2,2.4c-0.8,-0.1 -1.6,-0.3 -2.4,-0.4c-0.4,-0.9 -0.8,-1.9 -1.2,-2.8c-1.2,-0.1 -2.5,-0.1 -3.7,0c-0.4,0.9 -0.8,1.9 -1.2,2.8c-0.8,0.1 -1.6,0.2 -2.4,0.4c-0.4,-0.8 -0.8,-1.6 -1.2,-2.4c-1.2,0.3 -2.4,0.7 -3.5,1.1l0,6.2c3.3,-1.1 7,-1.6 10.7,-1.5m-10.5,13.8l-2.2,-1.6l-0.5,1.4l-2,-1.5l-0.8,-2.4l-2,-1.5l-0.8,1.2l-2,-1.5l-0.8,-2.4l-2,-1.5l-0.8,1.2l-2,-1.5l-0.8,-2.4l-2.2,-1.6c0,0 0.5,4.2 0.7,5.8l17.7,13.3c0,-1.1 0.5,-5 0.5,-5m-21.1,-23.4c0.8,-1.1 1.5,-2.2 2.4,-3.3c-6.8,-1.8 -13.8,-1.8 -20.5,0c0.8,1.1 1.6,2.2 2.4,3.3c5.1,-0.8 10.4,-0.8 15.7,0m-8.6,-6c3.6,-0.1 7.4,0.4 10.9,1.5l0,-6.2c-1.2,-0.5 -2.3,-0.8 -3.6,-1.1c-0.4,0.8 -0.8,1.6 -1.2,2.4c-0.8,-0.1 -1.6,-0.3 -2.4,-0.4c-0.4,-0.9 -0.8,-1.9 -1.2,-2.8c-1.2,-0.1 -2.4,-0.1 -3.7,0c-0.4,0.9 -0.8,1.9 -1.2,2.8c-0.8,0.1 -1.6,0.2 -2.4,0.4c-0.4,-0.8 -0.8,-1.6 -1.2,-2.4c-1.2,0.3 -2.4,0.7 -3.6,1.1l0,6.2c3.1,-0.9 6.4,-1.4 9.6,-1.5m-9.4,15.1l-2.2,1.6l-0.8,2.4l-2,1.5l-0.8,-1.2l-2,1.5l-0.8,2.4l-2,1.5l-0.8,-1.2l-2,1.5l-0.8,2.4l-2,1.5l-0.6,-1.4l-2.2,1.6c0,0 0.5,3.9 0.6,4.8l17.7,-13.3c0.2,-1.4 0.7,-5.6 0.7,-5.6m-20.9,6.5c0.8,-1.1 1.5,-2.2 2.4,-3.3c-6.8,-1.8 -13.8,-1.8 -20.5,0c0.8,1.1 1.6,2.2 2.4,3.3c5.1,-0.9 10.4,-0.9 15.7,0m-8.5,-6c3.6,-0.1 7.4,0.4 10.9,1.5l0,-6.2c-1.2,-0.5 -2.3,-0.8 -3.6,-1.1c-0.4,0.8 -0.8,1.6 -1.2,2.4c-0.8,-0.1 -1.6,-0.3 -2.4,-0.4c-0.4,-0.9 -0.8,-1.9 -1.2,-2.8c-1.2,-0.1 -2.4,-0.1 -3.7,0c-0.4,0.9 -0.8,1.9 -1.2,2.8c-0.8,0.1 -1.6,0.2 -2.4,0.4c-0.4,-0.8 -0.8,-1.6 -1.2,-2.4c-1.2,0.3 -2.4,0.7 -3.6,1.1l0,6.2c3,-1 6.3,-1.5 9.6,-1.5m-7.3,7.3c-1.5,12.7 -3,25.4 -4.6,38c8,3.9 17.1,3.9 25.1,0c-1.6,-12.7 -3.1,-25.3 -4.6,-38c-5.4,-0.8 -10.7,-0.8 -15.9,0m6.6,11.3c0,-0.9 0.3,-1.8 0.8,-2.6c0.2,-0.3 0.3,-0.4 0.4,-0.7c0.2,0.3 0.3,0.4 0.4,0.7c0.5,0.8 0.8,1.6 0.8,2.6l0,6.2c-0.8,0 -1.6,0 -2.5,0l0.1,-6.2l0,0zm14.2,20.3l12.1,-9.2l0,-0.2c1,-7.7 1.9,-15.4 2.8,-22.7l-17.2,13.2c0.7,6.1 1.5,12.5 2.3,18.9m24.5,22l0.6,0.3l0,-22c-2.9,-1.4 -5.4,-2.1 -8,-2.1c-2.8,0 -5.5,0.8 -8.6,2.4l-0.7,0.4l0,21.9l1.9,-1c2.6,-1.3 5.1,-1.9 7.4,-1.9c2.4,0.1 4.8,0.7 7.4,2m10.2,-23.7c-2.6,0 -5.1,0.7 -8,2.1l0,22l0.6,-0.3c2.6,-1.3 5.1,-1.9 7.4,-1.9s4.8,0.6 7.4,1.9l1.9,1l0,-21.9l-0.7,-0.4c-3.1,-1.8 -5.9,-2.5 -8.6,-2.5m-8.8,-19.2c1.8,1.1 3.3,2.6 4.4,4.5c1,1.8 1.6,3.9 1.6,6l0,1.9c0.7,0.5 1,0.7 1.7,1.3c1.7,-0.5 3.3,-1.1 4.9,-1.9c-1.6,-12.7 -3.2,-25.4 -4.6,-38c-5.3,-0.8 -10.6,-0.8 -15.8,0c-1.5,12.7 -3,25.4 -4.6,38c1.6,0.8 3.2,1.4 4.9,1.9c0.7,-0.5 1,-0.7 1.7,-1.3l0,-1.9c-0.1,-4.3 2.2,-8.3 5.8,-10.5m1.3,-8.7c-0.8,0 -1.6,0 -2.5,0l0,-6.2c0,-0.9 0.3,-1.8 0.8,-2.6c0.2,-0.3 0.3,-0.4 0.4,-0.7c0.2,0.3 0.3,0.4 0.4,0.7c0.5,0.7 0.8,1.6 0.8,2.6l0.1,6.2l0,0z" class="st2"/>
   <path id="svg_6" fill="#003C3C" d="m342.1,218.7c-0.1,0.6 -0.5,1.1 -1,1.5s-1.1,0.4 -1.7,0.3c-0.6,-0.1 -1.1,-0.4 -1.5,-1c-0.4,-0.5 -0.5,-1.1 -0.3,-1.7c0.1,-0.6 0.5,-1.1 1,-1.5c0.5,-0.3 1.1,-0.4 1.7,-0.3c0.6,0.1 1.1,0.4 1.5,0.9c0.3,0.5 0.4,1.1 0.3,1.8m-19.7,30.6l1.7,-4.1c0.4,-1 1,-1.7 1.9,-2c0.8,-0.3 1.6,-0.3 2.5,0.1c0.9,0.4 1.5,1 1.8,1.8c0.3,0.8 0.2,1.7 -0.2,2.7l-1.7,4l-6,-2.5zm20.4,-0.4l1.8,-4.1l-11.5,3.4c0.4,-1 0.5,-2 0.5,-3c-0.1,-1.2 -0.4,-2.2 -1.1,-3.1s-1.5,-1.6 -2.7,-2.1c-1.1,-0.5 -2.2,-0.6 -3.3,-0.5s-2.1,0.6 -3,1.4c-0.9,0.7 -1.6,1.7 -2.2,3l-3.2,7.5l20.1,8.5l1.4,-3.3l-8.6,-3.6l0.4,-0.9l11.4,-3.2zm-16.3,31.8c-0.9,1.4 -2,2.4 -3.4,3c-1.4,0.7 -2.8,1 -4.3,0.9s-2.9,-0.6 -4.3,-1.5l-11.2,-7.5l2,-3l11.2,7.5c0.9,0.6 1.8,0.9 2.7,1s1.7,-0.1 2.5,-0.5c0.8,-0.4 1.4,-1 2,-1.8c0.5,-0.8 0.8,-1.6 0.9,-2.5c0.1,-0.9 -0.1,-1.7 -0.5,-2.5c-0.4,-0.8 -1,-1.5 -1.9,-2.1l-11.2,-7.5l2,-3l11.2,7.5c1.4,0.9 2.4,2 3,3.4c0.6,1.3 0.9,2.7 0.8,4.2c-0.1,1.6 -0.6,3 -1.5,4.4m-14.8,19.1l-15.2,-15.6l-1.8,1.7l3.5,15.5l-15.4,-4l-1.8,1.7l15.2,15.6l2.6,-2.5l-9.7,-10l11,2.9l1.8,-1.7l-2.5,-11.1l9.7,10l2.6,-2.5zm-30.7,26.1l-12.4,-17.9l3,-2l12.4,17.9l-3,2zm-20.1,11.9c-1.5,0.7 -3,1 -4.5,0.9c-1.5,-0.1 -2.9,-0.6 -4.1,-1.4c-1.2,-0.8 -2.2,-2 -3,-3.5l-5.9,-12.2l3.2,-1.6l5.9,12.1c0.5,1 1.1,1.7 1.8,2.2c0.7,0.5 1.5,0.8 2.4,0.8s1.7,-0.1 2.6,-0.6c0.9,-0.4 1.6,-1 2,-1.7c0.5,-0.7 0.8,-1.5 0.8,-2.4c0,-0.9 -0.1,-1.8 -0.6,-2.7l-5.9,-12.2l3.2,-1.6l5.9,12.2c0.7,1.5 1,3 0.9,4.4c-0.1,1.5 -0.6,2.8 -1.4,4.1c-0.7,1.5 -1.8,2.5 -3.3,3.2m-29.6,6.5c-0.9,0.9 -2.1,1.5 -3.5,1.9c-1,0.3 -2.1,0.3 -3,0.2s-1.9,-0.5 -2.7,-1c-0.8,-0.5 -1.5,-1.2 -2.1,-2c-0.6,-0.8 -1,-1.8 -1.3,-2.9c-0.4,-1.5 -0.4,-2.9 -0.1,-4.2s1,-2.4 1.9,-3.3c0.9,-0.9 2.1,-1.5 3.5,-1.9c1.1,-0.3 2.1,-0.3 3,-0.2s1.9,0.5 2.7,1c0.8,0.5 1.5,1.2 2.1,2c0.6,0.8 1,1.8 1.3,2.9c0.4,1.5 0.4,2.9 0.1,4.2c0,0 0,0.1 0,0.2l-4.7,-2.8l-1.7,2.8l4.8,2.9c-0.1,0 -0.2,0.1 -0.3,0.2m9,1.1l-4.1,-2.5c0.3,-0.8 0.6,-1.7 0.7,-2.6c0.2,-1.5 0.1,-2.9 -0.2,-4.5s-1,-2.8 -1.9,-4c-0.9,-1.2 -2,-2.1 -3.2,-2.9c-1.2,-0.8 -2.6,-1.2 -4,-1.5c-1.4,-0.2 -2.9,-0.2 -4.4,0.2s-2.8,1 -4,1.9s-2.1,1.9 -2.8,3.2c-0.7,1.2 -1.2,2.6 -1.4,4c-0.2,1.5 -0.1,2.9 0.2,4.4c0.4,1.5 1,2.8 1.9,4c0.9,1.2 2,2.1 3.2,2.9c1.2,0.8 2.6,1.2 4,1.5s2.9,0.2 4.4,-0.2c1.5,-0.4 2.8,-1 4,-1.9c0.7,-0.5 1.3,-1.2 1.9,-1.8l4.1,2.5l1.6,-2.7zm-35.4,8.1l-0.2,-3.3l-11.1,0.6l-0.3,-6.3l10,-0.5l-0.2,-3.1l-10,0.5l-0.3,-5.8l10.9,-0.6l-0.2,-3.3l-14.5,0.8l1.1,21.8l14.8,-0.8zm-36.4,-0.2c-1.7,-0.2 -3.1,-0.7 -4.2,-1.5c-1.1,-0.8 -2.1,-1.8 -2.9,-3.1l2.7,-2.1c0.5,0.9 1.1,1.7 1.9,2.3s1.8,1 3.1,1.1c1.2,0.1 2.2,0 2.9,-0.4c0.8,-0.4 1.2,-1 1.3,-1.9c0.1,-0.7 0,-1.3 -0.3,-1.8c-0.3,-0.5 -0.8,-0.9 -1.3,-1.3s-1.2,-0.7 -1.9,-1s-1.4,-0.7 -2.1,-1.1c-0.7,-0.4 -1.3,-0.8 -1.9,-1.4c-0.6,-0.5 -1,-1.2 -1.3,-1.9c-0.3,-0.8 -0.4,-1.7 -0.2,-2.8c0.1,-1.3 0.6,-2.3 1.3,-3.2s1.7,-1.4 2.8,-1.8c1.1,-0.3 2.4,-0.4 3.7,-0.3c1.4,0.2 2.7,0.6 3.7,1.3s1.9,1.5 2.5,2.5l-2.7,2.1c-0.5,-0.8 -1.1,-1.4 -1.7,-1.8c-0.6,-0.4 -1.4,-0.7 -2.2,-0.8c-1.1,-0.1 -1.9,0 -2.6,0.3s-1,0.9 -1.1,1.7c-0.1,0.7 0,1.2 0.4,1.7c0.3,0.5 0.8,0.8 1.4,1.2c0.6,0.3 1.2,0.7 1.9,1c0.7,0.3 1.4,0.7 2.1,1.1c0.7,0.4 1.3,0.9 1.9,1.4c0.6,0.6 1,1.2 1.2,2c0.3,0.8 0.4,1.8 0.2,2.9c-0.2,1.9 -1.1,3.4 -2.6,4.4c-1.8,1.1 -3.7,1.5 -6,1.2m-30.3,-29.6l-13,9.2l-2.1,-15.7l-2.3,-1l-8.7,20l3.3,1.4l5.6,-12.8l1.6,11.3l2.3,1l9.3,-6.5l-5.6,12.8l3.3,1.4l8.7,-20l-2.4,-1.1zm-28.2,-10.3l1.9,-2.7l-11.9,-8.3l-12.5,17.8l12,8.4l1.9,-2.7l-9.1,-6.3l3.6,-5.2l8.2,5.8l1.8,-2.6l-8.2,-5.8l3.3,-4.8l9,6.4zm-39.3,-7.6c-1.1,-1.1 -1.9,-2.4 -2.4,-3.7c-0.5,-1.4 -0.8,-2.8 -0.7,-4.2c0,-1.4 0.3,-2.8 0.9,-4.1c0.6,-1.3 1.4,-2.5 2.6,-3.6c1.1,-1.1 2.3,-1.9 3.7,-2.5c1.4,-0.6 2.7,-0.9 4.2,-0.8c1.4,0 2.8,0.3 4.2,0.8s2.6,1.4 3.7,2.5c1.2,1.3 2.1,2.5 2.6,3.9c0.5,1.3 0.7,2.7 0.7,4.1l-3.4,0c0.1,-1 -0.1,-1.9 -0.5,-2.8c-0.4,-0.9 -1,-1.8 -1.8,-2.7c-0.8,-0.8 -1.6,-1.3 -2.5,-1.7s-1.8,-0.5 -2.8,-0.5c-0.9,0 -1.9,0.2 -2.8,0.6c-0.9,0.4 -1.8,1 -2.6,1.8c-0.8,0.8 -1.4,1.7 -1.9,2.6c-0.4,0.9 -0.7,1.9 -0.7,2.8c0,0.9 0.1,1.9 0.5,2.8s0.9,1.7 1.7,2.5c0.9,1 1.9,1.6 2.8,2c0.9,0.4 1.9,0.5 2.8,0.5l0,3.4c-1.4,0 -2.8,-0.3 -4.2,-0.8c-1.6,-0.7 -2.8,-1.7 -4.1,-2.9m-21.2,-26.2c-0.9,-1.4 -1.4,-2.8 -1.5,-4.3s0.2,-2.9 0.9,-4.3c0.7,-1.4 1.7,-2.5 3.1,-3.4l11.3,-7.4l2,3l-11.3,7.4c-0.9,0.6 -1.5,1.3 -1.9,2.1c-0.4,0.8 -0.6,1.6 -0.5,2.5c0.1,0.9 0.4,1.7 0.9,2.5c0.5,0.8 1.2,1.4 1.9,1.8c0.8,0.4 1.6,0.5 2.5,0.5c0.9,-0.1 1.8,-0.4 2.6,-1l11.3,-7.4l2,3l-11.3,7.4c-1.4,0.9 -2.8,1.4 -4.3,1.5c-1.5,0.1 -2.9,-0.2 -4.2,-0.9c-1.5,-0.6 -2.6,-1.6 -3.5,-3m5.3,-36.9l-1.4,-3.3l-20,8.6l5.5,12.7l3,-1.3l-4.1,-9.4l17,-7.3zm-20.3,-24c-0.1,-0.6 0,-1.2 0.3,-1.7c0.4,-0.5 0.8,-0.8 1.5,-0.9c0.7,-0.1 1.2,0 1.7,0.3c0.5,0.3 0.8,0.8 1,1.5c0.1,0.6 0,1.2 -0.3,1.7s-0.8,0.8 -1.5,1c-0.6,0.1 -1.2,0 -1.7,-0.3c-0.6,-0.4 -0.9,-0.9 -1,-1.6m315.7,-33.1c-0.6,0.6 -1.4,1 -2.3,1c-1,0 -1.8,-0.2 -2.4,-0.8s-0.9,-1.4 -1,-2.5l-0.1,-4.4l6.5,-0.2l0.1,4.4c0.1,1.1 -0.2,1.9 -0.8,2.5m3.7,-10.6l-21.8,0.8l0.1,3.6l9.2,-0.3l0,0.9l-9,7.8l0.2,4.5l9,-8c0.1,1.1 0.4,2.1 0.9,2.9c0.5,1 1.3,1.8 2.3,2.3c1,0.5 2.1,0.8 3.3,0.7c1.2,0 2.3,-0.4 3.2,-1c0.9,-0.6 1.6,-1.4 2.1,-2.5c0.5,-1.1 0.8,-2.3 0.7,-3.6l-0.2,-8.1zm-22.2,-21.2l6.1,-1.3l2.1,9.8l3.1,-0.7l-2.1,-9.8l5.7,-1.2l2.3,10.7l3.2,-0.7l-3.1,-14.2l-21.3,4.6l3.1,14.3l3.2,-0.7l-2.3,-10.8zm10.3,-19.4l3,-1.2l-6.8,-16.4l-3,1.2l2.7,6.6l-17.1,7.1l1.4,3.3l17.1,-7.1l2.7,6.5zm-25.6,-31.1l5.4,8.5l2.7,-1.7l-5.4,-8.5l4.9,-3.1l5.8,9.2l2.8,-1.7l-7.7,-12.3l-18.4,11.6l7.8,12.4l2.8,-1.7l-5.9,-9.4l5.2,-3.3zm-2.4,-23.6l-9.7,1.4l2.1,-9.7l-2.9,-3.1l-2.6,12.8l-13.6,1.8l2.7,3l10.7,-1.4l-2.5,10.3l2.8,3.1l3.1,-13.3l12.6,-1.8l-2.7,-3.1zm-28.6,-10.8l1.9,-2.5l-8,-6l3.5,-4.7l8.8,6.5l1.9,-2.6l-11.8,-8.6l-13,17.5l11.8,8.7l2,-2.6l-8.9,-6.6l3.7,-5l8.1,5.9zm-29.1,-28.6l1.2,-3l-13,-5.3l-8.2,20.2l3.3,1.3l3.5,-8.7l9.2,3.7l1.2,-3l-9.2,-3.7l2.2,-5.5l9.8,4zm-40,3.4c1.5,0.3 2.8,0.2 4,-0.2c1.2,-0.4 2.2,-1.2 3.1,-2.2s1.4,-2.3 1.7,-3.8c0.2,-1.1 0.2,-2.2 0.1,-3.2c-0.2,-1 -0.5,-1.9 -1,-2.7c-0.5,-0.8 -1.2,-1.5 -2,-2c-0.8,-0.5 -1.8,-0.9 -2.8,-1.1c-1.4,-0.3 -2.8,-0.2 -4,0.2s-2.2,1.2 -3.1,2.2c-0.8,1 -1.4,2.3 -1.7,3.8c-0.2,1.1 -0.2,2.2 -0.1,3.2c0.2,1 0.5,1.9 1,2.7c0.5,0.8 1.2,1.5 2,2c0.8,0.5 1.7,0.9 2.8,1.1m-0.6,3.4c-1.5,-0.3 -2.9,-0.9 -4.1,-1.7c-1.2,-0.8 -2.2,-1.8 -3,-3.1c-0.8,-1.2 -1.4,-2.5 -1.6,-4c-0.3,-1.4 -0.3,-2.9 0,-4.5c0.3,-1.5 0.9,-2.9 1.7,-4.1s1.8,-2.2 3,-3.1c1.2,-0.8 2.5,-1.4 3.9,-1.7c1.4,-0.3 2.9,-0.3 4.4,0s2.9,0.9 4.1,1.7c1.2,0.8 2.2,1.8 3,3c0.8,1.2 1.4,2.5 1.6,4s0.3,2.9 0,4.5c-0.3,1.5 -0.9,2.9 -1.7,4.1c-0.8,1.2 -1.8,2.2 -3,3.1s-2.5,1.4 -3.9,1.7c-1.5,0.3 -2.9,0.4 -4.4,0.1m-29.3,-25.1l-4.1,0.3l-5,9.3l-6.3,-8.5l-4.1,0.3l8.8,11.7l0.7,9.5l3.6,-0.2l-0.7,-9.6l7.1,-12.8zm-27.4,6l-0.8,-3.2l-17.3,4.2l0.8,3.2l6.9,-1.7l4.3,18l3.5,-0.8l-4.3,-18l6.9,-1.7zm-24.3,26.4l-7.9,-20.3l3.3,-1.3l7.9,20.3l-3.3,1.3zm-17,8.6c-1.5,0.8 -2.9,1.3 -4.3,1.3s-2.7,-0.2 -4.2,-0.8l0.9,-3.3c0.9,0.5 1.9,0.7 2.9,0.7c1,0 2,-0.3 3.1,-0.9c1.1,-0.6 1.8,-1.3 2.1,-2.1c0.4,-0.8 0.4,-1.6 -0.1,-2.3c-0.4,-0.6 -0.8,-1.1 -1.4,-1.3c-0.6,-0.2 -1.2,-0.3 -1.9,-0.3c-0.7,0 -1.4,0.1 -2.2,0.3c-0.8,0.1 -1.5,0.3 -2.3,0.4c-0.8,0.1 -1.6,0.1 -2.3,0c-0.8,-0.1 -1.5,-0.4 -2.2,-0.8c-0.7,-0.5 -1.3,-1.2 -1.8,-2.1c-0.6,-1.1 -0.9,-2.2 -0.8,-3.3s0.5,-2.1 1.2,-3.1c0.7,-0.9 1.6,-1.7 2.8,-2.4c1.2,-0.7 2.5,-1.1 3.8,-1.1s2.4,0.1 3.4,0.5l-0.9,3.3c-0.9,-0.3 -1.7,-0.5 -2.5,-0.4c-0.8,0 -1.5,0.3 -2.3,0.7c-0.9,0.5 -1.6,1.1 -1.9,1.8c-0.3,0.7 -0.3,1.4 0.1,2c0.3,0.6 0.8,1 1.3,1.1c0.5,0.2 1.1,0.2 1.8,0.2c0.7,0 1.4,-0.1 2.1,-0.3c0.8,-0.1 1.5,-0.3 2.3,-0.4c0.8,-0.1 1.6,-0.1 2.4,0.1s1.5,0.4 2.2,0.9c0.7,0.5 1.3,1.2 1.9,2.2c0.9,1.7 1.1,3.4 0.5,5.1c-0.3,1.7 -1.6,3.1 -3.7,4.3m-35.2,1.4l3.4,-2.8c0.9,-0.7 1.7,-1 2.6,-0.9c0.9,0.1 1.6,0.5 2.1,1.2c0.6,0.8 0.9,1.6 0.8,2.4c-0.1,0.8 -0.6,1.6 -1.4,2.3l-3.4,2.8l-4.1,-5zm18.3,9.2l3.5,-2.9l-11.8,-2.4c0.8,-0.8 1.4,-1.6 1.8,-2.4c0.5,-1.1 0.6,-2.1 0.5,-3.2c-0.1,-1.1 -0.6,-2.1 -1.4,-3.1c-0.8,-0.9 -1.7,-1.6 -2.7,-2c-1,-0.4 -2.1,-0.4 -3.3,-0.2c-1.1,0.2 -2.3,0.8 -3.3,1.6l-6.3,5.1l13.8,16.9l2.8,-2.3l-5.8,-7.2l0.7,-0.6l11.5,2.7zm-17.6,15.7l-2.5,-2.1l-7.1,8.5l-4.8,-4l6.5,-7.7l-2.4,-2l-6.5,7.7l-4.4,-3.8l7,-8.4l-2.5,-2.1l-9.3,11.1l16.7,14l9.3,-11.2zm-32.8,6.2l-1.9,3.3l10.5,13.4l-16.8,-2.7l-2,3.4l23.2,3.4l1.3,-2.1l-14.3,-18.7zm4.2,39l-20.1,-8.4l1.4,-3.3l20.1,8.4l-1.4,3.3zm-4.2,11l-21.2,-5.2l-0.8,3.5l14.6,3.6l-17.4,7.6l-0.6,2.4l21.2,5.2l0.8,-3.5l-14.6,-3.6l17.3,-7.6l0.7,-2.4zm-5.8,36.1c-0.1,1.6 -0.5,3.1 -1.3,4.4c-0.8,1.3 -1.9,2.2 -3.2,3s-2.8,1 -4.4,0.9l-13.5,-0.6l0.2,-3.6l13.5,0.6c1.1,0 2,-0.1 2.8,-0.5c0.8,-0.4 1.4,-1 1.9,-1.7c0.5,-0.8 0.7,-1.6 0.8,-2.5c0.1,-1 -0.1,-1.8 -0.5,-2.6s-1,-1.4 -1.7,-1.9c-0.8,-0.5 -1.7,-0.7 -2.7,-0.8l-13.5,-0.6l0.2,-3.6l13.5,0.6c1.6,0.1 3.1,0.5 4.3,1.3c1.2,0.8 2.2,1.9 2.9,3.2c0.5,1.2 0.8,2.7 0.7,4.4" class="st2"/>
  </g>
 </g>
</svg>